<svg width="14" height="14" viewBox="0 0 14 14" fill="none" xmlns="http://www.w3.org/2000/svg">
<g id="Frame" clip-path="url(#clip0_31_462)">
<g id="Group">
<path id="Vector" d="M9.82932 0H4.17068C1.87096 0 0 1.87096 0 4.17068V9.82932C0 12.129 1.87096 14 4.17068 14H9.82932C12.129 14 14 12.129 14 9.82932V4.17068C14 1.87096 12.129 0 9.82932 0ZM12.5916 9.82932C12.5916 11.3549 11.3549 12.5916 9.82932 12.5916H4.17068C2.64513 12.5916 1.4084 11.3549 1.4084 9.82932V4.17068C1.4084 2.6451 2.64513 1.4084 4.17068 1.4084H9.82932C11.3549 1.4084 12.5916 2.6451 12.5916 4.17068V9.82932Z" fill="white"/>
<path id="Vector_2" d="M7.00005 3.37891C5.00348 3.37891 3.37915 5.00324 3.37915 6.99978C3.37915 8.99632 5.00348 10.6207 7.00005 10.6207C8.99661 10.6207 10.6209 8.99635 10.6209 6.99978C10.6209 5.00321 8.99661 3.37891 7.00005 3.37891ZM7.00005 9.2123C5.77811 9.2123 4.78755 8.22174 4.78755 6.9998C4.78755 5.77787 5.77813 4.78731 7.00005 4.78731C8.22199 4.78731 9.21255 5.77787 9.21255 6.9998C9.21255 8.22172 8.22196 9.2123 7.00005 9.2123Z" fill="white"/>
<path id="Vector_3" d="M10.6279 4.27386C11.1071 4.27386 11.4955 3.8854 11.4955 3.40622C11.4955 2.92703 11.1071 2.53857 10.6279 2.53857C10.1487 2.53857 9.76025 2.92703 9.76025 3.40622C9.76025 3.8854 10.1487 4.27386 10.6279 4.27386Z" fill="white"/>
</g>
</g>
<defs>
<clipPath id="clip0_31_462">
<rect width="14" height="14" fill="white"/>
</clipPath>
</defs>
</svg>
