<svg width="30" height="30" viewBox="0 0 30 30" fill="none" xmlns="http://www.w3.org/2000/svg">
<g id="Group 17">
<circle id="Ellipse 4" cx="15" cy="15" r="15" fill="#F61C0D"/>
<g id="Group">
<path id="Vector" d="M20.8546 11.4379C20.7033 10.8757 20.26 10.4324 19.6978 10.281C18.6707 10 14.5623 10 14.5623 10C14.5623 10 10.4541 10 9.42706 10.2704C8.87566 10.4216 8.42154 10.8758 8.27029 11.4379C8 12.4649 8 14.5948 8 14.5948C8 14.5948 8 16.7354 8.27029 17.7516C8.42168 18.3138 8.86485 18.7571 9.42714 18.9085C10.4649 19.1896 14.5625 19.1896 14.5625 19.1896C14.5625 19.1896 18.6707 19.1896 19.6978 18.9192C20.2601 18.7679 20.7033 18.3246 20.8547 17.7624C21.1249 16.7354 21.1249 14.6056 21.1249 14.6056C21.1249 14.6056 21.1357 12.4649 20.8546 11.4379ZM13.2543 16.5624V12.6271L16.6706 14.5948L13.2543 16.5624Z" fill="white"/>
</g>
</g>
</svg>
