<svg width="16" height="16" viewBox="0 0 16 16" fill="none" xmlns="http://www.w3.org/2000/svg">
<g id="Frame">
<g id="Group">
<path id="Vector" d="M4.99996 1.66667C4.99996 1.29848 4.70148 1 4.33329 1C3.9651 1 3.66663 1.29848 3.66663 1.66667V2.33333C3.66663 2.70152 3.9651 3 4.33329 3C4.70148 3 4.99996 2.70152 4.99996 2.33333V1.66667Z" fill="#0A0C12"/>
<path id="Vector_2" d="M12.3333 1.66667C12.3333 1.29848 12.0349 1 11.6667 1C11.2985 1 11 1.29848 11 1.66667V2.33333C11 2.70152 11.2985 3 11.6667 3C12.0349 3 12.3333 2.70152 12.3333 2.33333V1.66667Z" fill="#0A0C12"/>
<path id="Vector_3" d="M1.33331 6V13.6667C1.33331 14.0203 1.47379 14.3594 1.72384 14.6095C1.97389 14.8595 2.31302 15 2.66665 15H13.3333C13.6869 15 14.0261 14.8595 14.2761 14.6095C14.5262 14.3594 14.6666 14.0203 14.6666 13.6667V6H1.33331ZM5.33331 12.6667C5.33331 12.8435 5.26308 13.013 5.13805 13.1381C5.01303 13.2631 4.84346 13.3333 4.66665 13.3333H3.99998C3.82317 13.3333 3.6536 13.2631 3.52858 13.1381C3.40355 13.013 3.33331 12.8435 3.33331 12.6667V12C3.33331 11.8232 3.40355 11.6536 3.52858 11.5286C3.6536 11.4036 3.82317 11.3333 3.99998 11.3333H4.66665C4.84346 11.3333 5.01303 11.4036 5.13805 11.5286C5.26308 11.6536 5.33331 11.8232 5.33331 12V12.6667ZM5.33331 9C5.33331 9.17681 5.26308 9.34638 5.13805 9.4714C5.01303 9.59643 4.84346 9.66667 4.66665 9.66667H3.99998C3.82317 9.66667 3.6536 9.59643 3.52858 9.4714C3.40355 9.34638 3.33331 9.17681 3.33331 9V8.33333C3.33331 8.15652 3.40355 7.98695 3.52858 7.86193C3.6536 7.73691 3.82317 7.66667 3.99998 7.66667H4.66665C4.84346 7.66667 5.01303 7.73691 5.13805 7.86193C5.26308 7.98695 5.33331 8.15652 5.33331 8.33333V9ZM8.99998 12.6667C8.99998 12.8435 8.92974 13.013 8.80472 13.1381C8.67969 13.2631 8.51012 13.3333 8.33331 13.3333H7.66665C7.48984 13.3333 7.32027 13.2631 7.19524 13.1381C7.07022 13.013 6.99998 12.8435 6.99998 12.6667V12C6.99998 11.8232 7.07022 11.6536 7.19524 11.5286C7.32027 11.4036 7.48984 11.3333 7.66665 11.3333H8.33331C8.51012 11.3333 8.67969 11.4036 8.80472 11.5286C8.92974 11.6536 8.99998 11.8232 8.99998 12V12.6667ZM8.99998 9C8.99998 9.17681 8.92974 9.34638 8.80472 9.4714C8.67969 9.59643 8.51012 9.66667 8.33331 9.66667H7.66665C7.48984 9.66667 7.32027 9.59643 7.19524 9.4714C7.07022 9.34638 6.99998 9.17681 6.99998 9V8.33333C6.99998 8.15652 7.07022 7.98695 7.19524 7.86193C7.32027 7.73691 7.48984 7.66667 7.66665 7.66667H8.33331C8.51012 7.66667 8.67969 7.73691 8.80472 7.86193C8.92974 7.98695 8.99998 8.15652 8.99998 8.33333V9ZM12.6666 12.6667C12.6666 12.8435 12.5964 13.013 12.4714 13.1381C12.3464 13.2631 12.1768 13.3333 12 13.3333H11.3333C11.1565 13.3333 10.9869 13.2631 10.8619 13.1381C10.7369 13.013 10.6666 12.8435 10.6666 12.6667V12C10.6666 11.8232 10.7369 11.6536 10.8619 11.5286C10.9869 11.4036 11.1565 11.3333 11.3333 11.3333H12C12.1768 11.3333 12.3464 11.4036 12.4714 11.5286C12.5964 11.6536 12.6666 11.8232 12.6666 12V12.6667ZM12.6666 9C12.6666 9.17681 12.5964 9.34638 12.4714 9.4714C12.3464 9.59643 12.1768 9.66667 12 9.66667H11.3333C11.1565 9.66667 10.9869 9.59643 10.8619 9.4714C10.7369 9.34638 10.6666 9.17681 10.6666 9V8.33333C10.6666 8.15652 10.7369 7.98695 10.8619 7.86193C10.9869 7.73691 11.1565 7.66667 11.3333 7.66667H12C12.1768 7.66667 12.3464 7.73691 12.4714 7.86193C12.5964 7.98695 12.6666 8.15652 12.6666 8.33333V9ZM14.6666 5.33333V3.33333C14.6666 2.97971 14.5262 2.64057 14.2761 2.39052C14.0261 2.14048 13.6869 2 13.3333 2H13V2.33333C13 3.06867 12.402 3.66667 11.6666 3.66667C10.9313 3.66667 10.3333 3.06867 10.3333 2.33333V2H5.66665V2.33333C5.66665 3.06867 5.06865 3.66667 4.33331 3.66667C3.59798 3.66667 2.99998 3.06867 2.99998 2.33333V2H2.66665C2.31302 2 1.97389 2.14048 1.72384 2.39052C1.47379 2.64057 1.33331 2.97971 1.33331 3.33333V5.33333H14.6666Z" fill="#0A0C12"/>
</g>
</g>
</svg>
