<svg width="16" height="16" viewBox="0 0 16 16" fill="none" xmlns="http://www.w3.org/2000/svg">
<g id="Frame" clip-path="url(#clip0_225_318)">
<g id="Group">
<path id="Vector" d="M6.16663 0H1.16663C0.523313 0 0 0.523313 0 1.16663V4.16663C0 4.81006 0.523313 5.33337 1.16663 5.33337H6.16663C6.81006 5.33337 7.33337 4.81006 7.33337 4.16663V1.16663C7.33337 0.523313 6.81006 0 6.16663 0ZM6.16663 6.66663H1.16663C0.523313 6.66663 0 7.18994 0 7.83337V14.8334C0 15.4767 0.523313 16 1.16663 16H6.16663C6.81006 16 7.33337 15.4767 7.33337 14.8334V7.83337C7.33337 7.18994 6.81006 6.66663 6.16663 6.66663ZM14.8334 10.6666H9.83337C9.18994 10.6666 8.66663 11.1899 8.66663 11.8334V14.8334C8.66663 15.4767 9.18994 16 9.83337 16H14.8334C15.4767 16 16 15.4767 16 14.8334V11.8334C16 11.1899 15.4767 10.6666 14.8334 10.6666ZM14.8334 0H9.83337C9.18994 0 8.66663 0.523313 8.66663 1.16663V8.16663C8.66663 8.81006 9.18994 9.33337 9.83337 9.33337H14.8334C15.4767 9.33337 16 8.81006 16 8.16663V1.16663C16 0.523313 15.4767 0 14.8334 0Z" fill="#0A0C12"/>
</g>
</g>
<defs>
<clipPath id="clip0_225_318">
<rect width="16" height="16" fill="white"/>
</clipPath>
</defs>
</svg>
