<svg width="16" height="16" viewBox="0 0 16 16" fill="none" xmlns="http://www.w3.org/2000/svg">
<g id="Frame" clip-path="url(#clip0_225_355)">
<g id="Group">
<path id="Vector" d="M10 4.33334C9.82319 4.33334 9.65362 4.26311 9.5286 4.13808C9.40357 4.01306 9.33333 3.84349 9.33333 3.66668V2.66668H6.66667V3.66668C6.66667 3.84349 6.59643 4.01306 6.4714 4.13808C6.34638 4.26311 6.17681 4.33334 6 4.33334C5.82319 4.33334 5.65362 4.26311 5.5286 4.13808C5.40357 4.01306 5.33333 3.84349 5.33333 3.66668V2.66668C5.33333 1.93134 5.93133 1.33334 6.66667 1.33334H9.33333C10.0687 1.33334 10.6667 1.93134 10.6667 2.66668V3.66668C10.6667 3.84349 10.5964 4.01306 10.4714 4.13808C10.3464 4.26311 10.1768 4.33334 10 4.33334ZM8.47333 10.2533C8.15286 10.3635 7.80405 10.3588 7.48667 10.24L0 7.74668V12.8333C0 13.8467 0.82 14.6667 1.83333 14.6667H14.1667C15.18 14.6667 16 13.8467 16 12.8333V7.74668L8.47333 10.2533Z" fill="#0A0C12"/>
<path id="Vector_2" d="M16 5.16668V6.69334L8.16 9.30668C8.10667 9.32668 8.05333 9.33334 8 9.33334C7.94667 9.33334 7.89333 9.32668 7.84 9.30668L0 6.69334V5.16668C0 4.15334 0.82 3.33334 1.83333 3.33334H14.1667C15.18 3.33334 16 4.15334 16 5.16668Z" fill="#0A0C12"/>
</g>
</g>
<defs>
<clipPath id="clip0_225_355">
<rect width="16" height="16" fill="white"/>
</clipPath>
</defs>
</svg>
