<svg width="16" height="16" viewBox="0 0 16 16" fill="none" xmlns="http://www.w3.org/2000/svg">
<g id="Frame" clip-path="url(#clip0_225_345)">
<g id="Group">
<path id="Vector" d="M7.46453 11.4812H8.53541V12.5521H7.46453V11.4812ZM11.7323 11.4812H12.8031V12.5521H11.7323V11.4812ZM3.19684 7.46459H4.26772V8.53541H3.19684V7.46459ZM3.19684 11.4812H4.26772V12.5521H3.19684V11.4812ZM14.276 1.00416H13.925V2.47709C13.925 2.73597 13.7151 2.94584 13.4563 2.94584C13.1974 2.94584 12.9875 2.73597 12.9875 2.47709V0.46875C12.9875 0.209875 12.7776 0 12.5188 0C12.2599 0 12.05 0.209875 12.05 0.46875V1.00416H10.9125V2.47709C10.9125 2.73597 10.7026 2.94584 10.4438 2.94584C10.1849 2.94584 9.975 2.73597 9.975 2.47709V0.46875C9.975 0.209875 9.76513 0 9.50625 0C9.24738 0 9.0375 0.209875 9.0375 0.46875V1.00416H7.9V2.47709C7.9 2.73597 7.69012 2.94584 7.43125 2.94584C7.17238 2.94584 6.9625 2.73597 6.9625 2.47709V0.46875C6.9625 0.209875 6.75262 0 6.49375 0C6.23488 0 6.025 0.209875 6.025 0.46875V1.00416H4.8875V2.47709C4.8875 2.73597 4.67762 2.94584 4.41875 2.94584C4.15987 2.94584 3.95 2.73597 3.95 2.47709V0.46875C3.95 0.209875 3.74013 0 3.48125 0C3.22237 0 3.0125 0.209875 3.0125 0.46875V1.00416H1.72394C0.773375 1.00416 0 1.77753 0 2.72813V4.01666H16V2.72813C16 1.77753 15.2266 1.00416 14.276 1.00416Z" fill="#7E7E7E"/>
<path id="Vector_2" d="M0 14.276C0 15.2266 0.773375 16 1.72394 16H14.276C15.2266 16 16 15.2266 16 14.276V4.95416H0V14.276ZM9.47291 13.0208C9.47291 13.2797 9.26303 13.4896 9.00416 13.4896H6.99578C6.73691 13.4896 6.52703 13.2797 6.52703 13.0208V11.0125C6.52703 10.7536 6.73691 10.5438 6.99578 10.5438H9.00416C9.26303 10.5438 9.47291 10.7536 9.47291 11.0125V13.0208ZM10.7948 6.99585C10.7948 6.73698 11.0047 6.5271 11.2636 6.5271H13.2719C13.5308 6.5271 13.7406 6.73698 13.7406 6.99585V9.00416C13.7406 9.26304 13.5308 9.47291 13.2719 9.47291H11.2636C11.0047 9.47291 10.7948 9.26304 10.7948 9.00416V6.99585ZM10.7948 11.0125C10.7948 10.7536 11.0047 10.5438 11.2636 10.5438H13.2719C13.5308 10.5438 13.7406 10.7536 13.7406 11.0125V13.0208C13.7406 13.2797 13.5308 13.4896 13.2719 13.4896H11.2636C11.0047 13.4896 10.7948 13.2797 10.7948 13.0208V11.0125ZM6.6035 7.66857C6.78653 7.48554 7.08334 7.48554 7.26641 7.66857L7.64503 8.04716L8.73363 6.95854C8.91669 6.77551 9.21344 6.77544 9.39653 6.95854C9.57959 7.14157 9.57959 7.43835 9.39656 7.62144L7.97653 9.04154C7.88862 9.12943 7.76939 9.1788 7.64508 9.1788C7.52076 9.1788 7.40154 9.12943 7.31362 9.04154L6.60353 8.33144C6.42044 8.14841 6.42044 7.8516 6.6035 7.66857ZM2.25934 6.99585C2.25934 6.73698 2.46922 6.5271 2.72809 6.5271H4.73647C4.99534 6.5271 5.20522 6.73698 5.20522 6.99585V9.00416C5.20522 9.26304 4.99534 9.47291 4.73647 9.47291H2.72809C2.46922 9.47291 2.25934 9.26304 2.25934 9.00416V6.99585ZM2.25934 11.0125C2.25934 10.7536 2.46922 10.5438 2.72809 10.5438H4.73647C4.99534 10.5438 5.20522 10.7536 5.20522 11.0125V13.0208C5.20522 13.2797 4.99534 13.4896 4.73647 13.4896H2.72809C2.46922 13.4896 2.25934 13.2797 2.25934 13.0208V11.0125Z" fill="#7E7E7E"/>
<path id="Vector_3" d="M11.7323 7.4646H12.8031V8.53541H11.7323V7.4646Z" fill="#7E7E7E"/>
</g>
</g>
<defs>
<clipPath id="clip0_225_345">
<rect width="16" height="16" fill="white"/>
</clipPath>
</defs>
</svg>
