<svg width="24" height="24" viewBox="0 0 24 24" fill="none" xmlns="http://www.w3.org/2000/svg">
<g id="Frame" clip-path="url(#clip0_221_49)">
<g id="Group">
<path id="Vector" d="M21.379 16.913C20.633 16.2837 20.0336 15.4989 19.6226 14.6136C19.2117 13.7284 18.9992 12.764 19 11.788V9C19 5.481 16.386 2.568 13 2.08V1C13 0.734784 12.8946 0.48043 12.7071 0.292893C12.5196 0.105357 12.2652 0 12 0C11.7348 0 11.4804 0.105357 11.2929 0.292893C11.1053 0.48043 11 0.734784 11 1V2.08C7.61299 2.568 4.99999 5.481 4.99999 9V11.788C5.00037 12.766 4.78682 13.7322 4.3743 14.6189C3.96178 15.5056 3.36029 16.2913 2.61199 16.921C2.34155 17.1541 2.14879 17.4643 2.05953 17.81C1.97028 18.1557 1.98878 18.5205 2.11256 18.8554C2.23634 19.1903 2.4595 19.4794 2.75214 19.684C3.04478 19.8885 3.39294 19.9988 3.74999 20H20.25C21.215 20 22 19.215 22 18.25C22 17.738 21.777 17.254 21.379 16.913ZM12 24C12.864 23.9988 13.7012 23.6998 14.3705 23.1533C15.0397 22.6068 15.5001 21.8463 15.674 21H8.32599C8.4999 21.8463 8.96028 22.6068 9.62953 23.1533C10.2988 23.6998 11.136 23.9988 12 24Z" fill="#0A0C12"/>
</g>
</g>
<defs>
<clipPath id="clip0_221_49">
<rect width="24" height="24" fill="white"/>
</clipPath>
</defs>
</svg>
