<svg width="14" height="16" viewBox="0 0 14 16" fill="none" xmlns="http://www.w3.org/2000/svg">
<path d="M1 14.5V4H13V14.5C13 15.3438 12.3125 16 11.5 16H2.5C1.65625 16 1 15.3438 1 14.5ZM9.5 6.5V13.5C9.5 13.7812 9.71875 14 10 14C10.25 14 10.5 13.7812 10.5 13.5V6.5C10.5 6.25 10.25 6 10 6C9.71875 6 9.5 6.25 9.5 6.5ZM6.5 6.5V13.5C6.5 13.7812 6.71875 14 7 14C7.25 14 7.5 13.7812 7.5 13.5V6.5C7.5 6.25 7.25 6 7 6C6.71875 6 6.5 6.25 6.5 6.5ZM3.5 6.5V13.5C3.5 13.7812 3.71875 14 4 14C4.25 14 4.5 13.7812 4.5 13.5V6.5C4.5 6.25 4.25 6 4 6C3.71875 6 3.5 6.25 3.5 6.5ZM13.5 1C13.75 1 14 1.25 14 1.5V2.5C14 2.78125 13.75 3 13.5 3H0.5C0.21875 3 0 2.78125 0 2.5V1.5C0 1.25 0.21875 1 0.5 1H4.25L4.53125 0.4375C4.65625 0.1875 4.90625 0 5.1875 0H8.78125C9.0625 0 9.3125 0.1875 9.4375 0.4375L9.75 1H13.5Z" fill="white"/>
</svg>
