<svg width="20" height="20" viewBox="0 0 20 20" fill="none" xmlns="http://www.w3.org/2000/svg">
<g id="Frame" clip-path="url(#clip0_225_380)">
<g id="Group">
<path id="Vector" d="M15.8333 10.0385C15.3725 10.0385 15 10.4119 15 10.8717V17.5385C15 17.9976 14.6266 18.3717 14.1667 18.3717H2.5C2.03996 18.3717 1.66672 17.9976 1.66672 17.5385V5.87173C1.66672 5.41259 2.03996 5.03845 2.5 5.03845H9.16672C9.62754 5.03845 10 4.66509 10 4.20517C10 3.74513 9.62754 3.37173 9.16672 3.37173H2.5C1.12168 3.37173 0 4.49341 0 5.87173V17.5385C0 18.9168 1.12168 20.0385 2.5 20.0385H14.1667C15.545 20.0385 16.6667 18.9168 16.6667 17.5385V10.8717C16.6667 10.411 16.2941 10.0385 15.8333 10.0385Z" fill="#0A0C12"/>
<path id="Vector_2" d="M7.81326 9.27931C7.75534 9.33749 7.71567 9.41132 7.69912 9.49173L7.10998 12.4385C7.08252 12.5751 7.12584 12.7159 7.22412 12.8151C7.2629 12.8538 7.30893 12.8844 7.35956 12.9053C7.41019 12.9261 7.46443 12.9368 7.5192 12.9367C7.54576 12.9367 7.57338 12.9343 7.60084 12.9285L10.5467 12.3393C10.6283 12.3226 10.7025 12.2835 10.76 12.2251L17.3534 5.63169L14.4075 2.68599L7.81326 9.27931ZM19.3899 0.648528C18.5776 -0.164011 17.2558 -0.164011 16.4441 0.648528L15.2908 1.80177L18.2367 4.74763L19.3899 3.59423C19.7833 3.20177 20 2.67837 20 2.12173C20 1.56509 19.7833 1.04173 19.3899 0.648528Z" fill="#0A0C12"/>
</g>
</g>
<defs>
<clipPath id="clip0_225_380">
<rect width="20" height="20" fill="white"/>
</clipPath>
</defs>
</svg>
