<svg width="10" height="14" viewBox="0 0 10 14" fill="#282C36" xmlns="http://www.w3.org/2000/svg">
<path d="M8.90625 7.53125L2.84375 13.5938C2.69792 13.7396 2.52083 13.8125 2.3125 13.8125C2.10417 13.8125 1.92708 13.7396 1.78125 13.5938L1.09375 12.9062C0.947917 12.7604 0.864583 12.5833 0.84375 12.375C0.84375 12.1667 0.916667 11.9896 1.0625 11.8438L5.90625 7L1.0625 2.15625C0.916667 2.01042 0.84375 1.83333 0.84375 1.625C0.864583 1.41667 0.947917 1.23958 1.09375 1.09375L1.78125 0.40625C1.92708 0.260417 2.10417 0.1875 2.3125 0.1875C2.52083 0.1875 2.69792 0.260417 2.84375 0.40625L8.90625 6.46875C9.07292 6.61458 9.15625 6.79167 9.15625 7C9.15625 7.20833 9.07292 7.38542 8.90625 7.53125Z" fill="inherit"/>
</svg>
