<svg width="10" height="14" viewBox="0 0 10 14" fill="#282C36" xmlns="http://www.w3.org/2000/svg">
<path d="M1.09375 7.53125L7.15625 13.5938C7.30208 13.7396 7.47917 13.8125 7.6875 13.8125C7.89583 13.8125 8.07292 13.7396 8.21875 13.5938L8.90625 12.9062C9.05208 12.7604 9.13542 12.5833 9.15625 12.375C9.15625 12.1667 9.08333 11.9896 8.9375 11.8438L4.09375 7L8.9375 2.15625C9.08333 2.01042 9.15625 1.83333 9.15625 1.625C9.13542 1.41667 9.05208 1.23958 8.90625 1.09375L8.21875 0.40625C8.07292 0.260417 7.89583 0.1875 7.6875 0.1875C7.47917 0.1875 7.30208 0.260417 7.15625 0.40625L1.09375 6.46875C0.927083 6.61458 0.84375 6.79167 0.84375 7C0.84375 7.20833 0.927083 7.38542 1.09375 7.53125Z" fill="inherit"/>
</svg>
