<svg width="19" height="17" viewBox="0 0 19 17" fill="none" xmlns="http://www.w3.org/2000/svg">
<path d="M12.5625 3.625L15.375 6.4375C15.5 6.5625 15.5 6.75 15.375 6.875L8.5625 13.6875L5.65625 14C5.28125 14.0625 4.9375 13.7188 5 13.3438L5.3125 10.4375L12.125 3.625C12.25 3.5 12.4375 3.5 12.5625 3.625ZM17.625 2.90625C18.0938 3.375 18.0938 4.15625 17.625 4.625L16.5312 5.71875C16.4062 5.84375 16.2188 5.84375 16.0938 5.71875L13.2812 2.90625C13.1562 2.78125 13.1562 2.59375 13.2812 2.46875L14.375 1.375C14.8438 0.90625 15.625 0.90625 16.0938 1.375L17.625 2.90625ZM12 11.8438C12 11.7188 12.0312 11.625 12.0938 11.5625L13.3438 10.3125C13.5938 10.0938 14 10.25 14 10.5938V15.5C14 16.3438 13.3125 17 12.5 17H1.5C0.65625 17 0 16.3438 0 15.5V4.5C0 3.6875 0.65625 3 1.5 3H10.4062C10.75 3 10.9062 3.40625 10.6875 3.65625L9.4375 4.90625C9.375 4.96875 9.28125 5 9.15625 5H2V15H12V11.8438Z" fill="#325AE7"/>
</svg>
