<svg width="25" height="26" viewBox="0 0 25 26" fill="none" xmlns="http://www.w3.org/2000/svg">
<g id="Icon">
<path id="Vector" d="M9.71094 19.6953L15.7109 13.6953C15.9141 13.5078 16.0156 13.2773 16.0156 13.0039C16.0156 12.7305 15.9141 12.4922 15.7109 12.2891L9.71094 6.28906C9.52344 6.10156 9.28906 6.00781 9.00781 6.00781C8.72656 6.00781 8.49219 6.10156 8.30469 6.28906C8.10156 6.49219 8 6.73047 8 7.00391C8 7.27734 8.10156 7.50781 8.30469 7.69531L13.6016 12.9922L8.30469 18.2891C8.10156 18.4922 8 18.7305 8 19.0039C8 19.2773 8.10156 19.5078 8.30469 19.6953C8.49219 19.8984 8.72656 20 9.00781 20C9.28906 20 9.52344 19.8984 9.71094 19.6953Z" fill="#B5B5C3"/>
</g>
</svg>
