<svg width="25" height="26" viewBox="0 0 25 26" fill="none" xmlns="http://www.w3.org/2000/svg">
<g id="Icon">
<path id="Vector" d="M15.7109 18.2891L10.4141 12.9922L15.7109 7.69531C15.9141 7.50781 16.0156 7.27734 16.0156 7.00391C16.0156 6.73047 15.9141 6.49219 15.7109 6.28906C15.5234 6.10156 15.2891 6.00781 15.0078 6.00781C14.7266 6.00781 14.4922 6.10156 14.3047 6.28906L8.30469 12.2891C8.10156 12.4922 8 12.7305 8 13.0039C8 13.2773 8.10156 13.5078 8.30469 13.6953L14.3047 19.6953C14.4922 19.8984 14.7266 20 15.0078 20C15.2891 20 15.5234 19.8984 15.7109 19.6953C15.9141 19.5078 16.0156 19.2773 16.0156 19.0039C16.0156 18.7305 15.9141 18.4922 15.7109 18.2891Z" fill="#B5B5C3"/>
</g>
</svg>
